Coordinates
version=1
nRows=17
nColumns=38
inDegrees=no

Units are S.I. units (second, meters, Newtons, ...)
If the header above contains a line with 'inDegrees', this indicates whether rotational values are in degrees (yes) or radians (no).

endheader
time	pelvis_tilt	pelvis_list	pelvis_rotation	pelvis_tx	pelvis_ty	pelvis_tz	hip_flexion_r	hip_adduction_r	hip_rotation_r	knee_angle_r	ankle_angle_r	subtalar_angle_r	mtp_angle_r	hip_flexion_l	hip_adduction_l	hip_rotation_l	knee_angle_l	ankle_angle_l	subtalar_angle_l	mtp_angle_l	lumbar_extension	lumbar_bending	lumbar_rotation	arm_flex_r	arm_add_r	arm_rot_r	elbow_flex_r	pro_sup_r	wrist_flex_r	wrist_dev_r	arm_flex_l	arm_add_l	arm_rot_l	elbow_flex_l	pro_sup_l	wrist_flex_l	wrist_dev_l
3.67	-0.408969	1.3691	1.9589	0.702335	0.462537	1.01019	-0.0154722	-0.124823	-0.095439	0.536371	-0.15323	0	0	0.481666	0.041368	-0.243379	0.350538	-0.475988	0	0	0.0508171	-0.170441	0.155811	0.716952	-0.496692	0.728599	1.27984	1.5708	0	0	0.843302	-0.238382	0.961042	1.08185	1.5708	0	0
3.68	-0.413134	1.36992	1.96374	0.699771	0.470579	1.01117	-0.0128742	-0.128234	-0.0828393	0.556761	-0.169234	0	0	0.471584	0.0438725	-0.244457	0.349487	-0.471922	0	0	0.0543829	-0.172321	0.158266	0.705469	-0.502001	0.722777	1.28197	1.5708	0	0	0.841144	-0.232756	0.969444	1.07736	1.5708	0	0
3.69	-0.416061	1.37075	1.96719	0.697204	0.478517	1.01221	-0.00857663	-0.131044	-0.0684933	0.579218	-0.186042	0	0	0.461225	0.046472	-0.248446	0.347584	-0.468372	0	0	0.057939	-0.173711	0.160435	0.694858	-0.506848	0.718163	1.28307	1.5708	0	0	0.83895	-0.226729	0.977748	1.07232	1.5708	0	0
3.7	-0.419117	1.37132	1.97096	0.694644	0.486313	1.0133	-0.00271047	-0.133262	-0.0520859	0.603195	-0.20403	0	0	0.451074	0.0495804	-0.254165	0.345751	-0.464722	0	0	0.0613046	-0.175294	0.16178	0.685223	-0.510941	0.714619	1.2833	1.5708	0	0	0.83662	-0.221555	0.986048	1.06781	1.5708	0	0
3.71	-0.422805	1.37182	1.97625	0.692092	0.493966	1.0144	0.00497686	-0.135508	-0.0373706	0.629905	-0.222739	0	0	0.440889	0.0533328	-0.260245	0.344052	-0.46075	0	0	0.0640805	-0.177401	0.161522	0.676552	-0.514094	0.711723	1.28295	1.5708	0	0	0.834096	-0.217711	0.993629	1.06448	1.5708	0	0
3.72	-0.427636	1.37244	1.98385	0.689542	0.50147	1.01549	0.013902	-0.137811	-0.0248289	0.658785	-0.24179	0	0	0.430536	0.05775	-0.266434	0.342168	-0.456864	0	0	0.0660174	-0.180113	0.159464	0.669	-0.516368	0.709378	1.28206	1.5708	0	0	0.831671	-0.214815	1.00011	1.06204	1.5708	0	0
3.73	-0.433048	1.37331	1.99308	0.686993	0.5088	1.01657	0.0234353	-0.139819	-0.0135829	0.688583	-0.260939	0	0	0.41983	0.0625615	-0.271965	0.339501	-0.453451	0	0	0.0670182	-0.183167	0.155811	0.6627	-0.517944	0.707763	1.28062	1.5708	0	0	0.829696	-0.21247	1.00588	1.06003	1.5708	0	0
3.74	-0.438379	1.37448	2.00308	0.684459	0.515959	1.01765	0.0339784	-0.141678	-0.00467005	0.720065	-0.279233	0	0	0.408621	0.0674416	-0.275729	0.335715	-0.450752	0	0	0.067095	-0.186321	0.150777	0.657601	-0.518798	0.706676	1.27851	1.5708	0	0	0.828197	-0.210615	1.01112	1.05833	1.5708	0	0
3.75	-0.442864	1.37588	2.01266	0.681968	0.522954	1.01869	0.0455955	-0.142959	0.00346604	0.753159	-0.295875	0	0	0.397219	0.0720815	-0.277361	0.331186	-0.448658	0	0	0.0663663	-0.189328	0.144959	0.653481	-0.519305	0.705885	1.27621	1.5708	0	0	0.827107	-0.20908	1.01577	1.05697	1.5708	0	0
3.76	-0.446984	1.37769	2.02169	0.679597	0.529796	1.01971	0.0586056	-0.143767	0.0109281	0.788587	-0.311805	0	0	0.385277	0.0761619	-0.276118	0.326288	-0.44661	0	0	0.0647524	-0.192108	0.139225	0.650189	-0.519844	0.705457	1.27396	1.5708	0	0	0.826597	-0.207728	1.02027	1.05582	1.5708	0	0
3.77	-0.450313	1.38022	2.02933	0.677341	0.536483	1.02076	0.0726359	-0.14405	0.0175835	0.825315	-0.328472	0	0	0.37271	0.0794344	-0.273189	0.320869	-0.444583	0	0	0.0621323	-0.194242	0.133982	0.647731	-0.520568	0.705368	1.27176	1.5708	0	0	0.826706	-0.20619	1.02482	1.05435	1.5708	0	0
3.78	-0.452331	1.38312	2.03496	0.675215	0.543001	1.02179	0.0876146	-0.143248	0.0255437	0.862809	-0.345601	0	0	0.360088	0.0817321	-0.269153	0.315662	-0.442398	0	0	0.0590154	-0.195809	0.129436	0.645625	-0.521381	0.70509	1.26998	1.5708	0	0	0.827224	-0.204625	1.02915	1.05301	1.5708	0	0
3.79	-0.453457	1.38626	2.03912	0.673221	0.549351	1.02278	0.103909	-0.141596	0.0339369	0.901399	-0.36339	0	0	0.347354	0.083217	-0.264593	0.310684	-0.439987	0	0	0.0555004	-0.197012	0.125358	0.64402	-0.522081	0.704596	1.26823	1.5708	0	0	0.82831	-0.203178	1.03347	1.05181	1.5708	0	0
3.8	-0.453938	1.38948	2.04208	0.671333	0.555552	1.02368	0.121614	-0.139505	0.0423667	0.940161	-0.382653	0	0	0.334671	0.0842428	-0.260619	0.3053	-0.437719	0	0	0.0517716	-0.197932	0.121616	0.643139	-0.52265	0.704372	1.26626	1.5708	0	0	0.829862	-0.201883	1.03774	1.05068	1.5708	0	0
3.81	-0.455267	1.39295	2.04546	0.669515	0.561627	1.02454	0.139902	-0.137214	0.0500779	0.978235	-0.401538	0	0	0.321678	0.0853107	-0.257381	0.29917	-0.435664	0	0	0.0475317	-0.198688	0.11804	0.642997	-0.523221	0.704781	1.26412	1.5708	0	0	0.831507	-0.200673	1.04157	1.04959	1.5708	0	0
3.82	-0.457602	1.39656	2.04957	0.667742	0.567592	1.02538	0.158393	-0.134779	0.0573702	1.01486	-0.416661	0	0	0.308683	0.0865141	-0.255166	0.293004	-0.433547	0	0	0.0428944	-0.199308	0.114502	0.643409	-0.523746	0.705698	1.26193	1.5708	0	0	0.833061	-0.199699	1.04509	1.04869	1.5708	0	0
3.83	-0.460833	1.4004	2.05468	0.665979	0.573455	1.02621	0.176953	-0.132663	0.0632022	1.04973	-0.424763	0	0	0.295697	0.0878017	-0.254083	0.287282	-0.431557	0	0	0.0377095	-0.19968	0.110736	0.64418	-0.524202	0.706621	1.25983	1.5708	0	0	0.834546	-0.198894	1.04818	1.04802	1.5708	0	0
